<?xml version="1.0" encoding="utf-8"?>
<!-- Generator: Adobe Illustrator 24.3.0, SVG Export Plug-In . SVG Version: 6.00 Build 0)  -->
<svg version="1.1" id="Layer_2" xmlns="http://www.w3.org/2000/svg" xmlns:xlink="http://www.w3.org/1999/xlink" x="0px" y="0px"
	 width="283.5px" height="283.5px" viewBox="0 0 283.5 283.5" style="enable-background:new 0 0 283.5 283.5;" xml:space="preserve"
	>
<style type="text/css">
	.st0{fill:#FFFFFF;}
	.st1{fill:none;stroke:#FFFFFF;stroke-width:2.8346;stroke-miterlimit:10;}
</style>
<g>
	<path class="st0" d="M87.2,106.6c7.2,0,10.9,1.3,13.7,2.4l-0.2,13.8c-3.6-1.3-6.9-2.1-11.8-2.1c-7.9,0-12.4,3.6-12.4,16.7
		c0,13.1,4.5,16.7,12.4,16.7c4.9,0,8.2-0.9,11.8-2.1l0.2,13.8c-2.8,1.2-6.5,2.4-13.7,2.4c-17.7,0-26.1-9.3-26.2-30.8
		C61.1,116,69.5,106.6,87.2,106.6"/>
	<polygon class="st0" points="196.1,130 205.1,107.9 222.3,107.9 203.7,143.9 203.8,166.9 188.4,166.9 188.6,143.9 169.9,107.9 
		187.1,107.9 	"/>
	<path class="st0" d="M169.1,107.9l0-2.4l0,0l0-0.5l0-0.5c0,0,0,0,0,0l0-2.3c0,0,0,0,0,0l0-1c0,0-1.2-0.5-1.8-0.7
		c-9.3-4-12.5-9.5-14.8-12.9c-2.3-3.4-13.3-21.4-26.6-22.8l0.2,0.8c0.1,0,0.8,0.2,1.9,0.5l-20,41.3c-1,0.1-1.5,0.1-1.5,0.1v0.4h0v59
		h15.4v-58.5c1.3,0,2.7,0,4.2,0v13.1h13.8v45.4h15.4v-45.4h13.9L169.1,107.9L169.1,107.9z M108.3,107.3l21.1-40.6
		c0.7,0.4,1.4,0.8,2.2,1.3l-18.8,38.9C110.9,107.2,109.4,107.3,108.3,107.3z M113,107l19.9-38c0.8,0.6,1.7,1.3,2.7,2.1l-17.3,35.6
		C116.4,106.9,114.6,107,113,107z M118.7,106.7l18.2-34.5c1,0.9,2,1.9,3.1,3.1l-15.2,31.2C122.5,106.6,120.5,106.7,118.7,106.7z
		 M125,106.5l16-29.9c0.9,1.1,1.8,2.3,2.8,3.5c0.1,0.1,0.1,0.2,0.2,0.2l-12.6,25.9C129.1,106.3,127,106.4,125,106.5z M137.9,106.2
		c-2.2,0-4.3,0.1-6.3,0.1L145,81.9c0.9,1.5,1.8,3.1,2.7,4.8l-9.4,19.4C138.2,106.2,138.1,106.2,137.9,106.2z M138.6,106.1l9.9-17.6
		c0.9,1.8,1.7,3.5,2.4,5.2l-5.9,12.2C142.9,106.1,140.7,106.1,138.6,106.1z M145.5,106l6.3-10.4c0.8,1.8,1.4,3.4,2,4.8l-2.5,5.3
		C149.3,105.8,147.4,105.9,145.5,106z M154.6,105.5c-1,0.1-1.9,0.1-2.9,0.2l2.6-4.2c0.6,1.6,1,2.6,1.1,2.8
		C155.1,104.7,154.9,105.2,154.6,105.5z"/>
</g>
<g>
	<path class="st0" d="M99.5,190.1h-8.6v7.7h9.5v1.6H89.1V180h11.3v1.6h-9.5v6.9h8.6V190.1z"/>
	<path class="st0" d="M112.4,187.3V180h1.8v19.5h-1l-0.4-1.1c-1.4,0.9-2.7,1.3-4.1,1.3c-4.2,0-5.3-3-5.3-6.8s1.1-6.8,5.3-6.8
		C109.9,186.2,111.3,186.5,112.4,187.3z M105.2,193c0,2.6,0.4,5.1,3.5,5.1c1.7,0,2.6-0.3,3.6-0.8v-8.6c-1-0.5-2-0.8-3.6-0.8
		C105.6,187.8,105.2,190.4,105.2,193z"/>
	<path class="st0" d="M119.3,195.9c0,1.7,1,2.2,2.6,2.2c1.7,0,2.5-0.3,3.5-0.8v-10.8h1.8v13h-1l-0.4-1.1c-1.2,0.9-2.5,1.4-3.9,1.4
		c-3.1,0-4.4-1.4-4.4-3.9v-9.4h1.8V195.9z"/>
	<path class="st0" d="M135.8,186.2c1.3,0,2.7,0.2,3.9,0.7v1.6c-1-0.3-2.1-0.6-3.9-0.6c-3.3,0-3.6,2.6-3.6,5.1s0.4,5.1,3.6,5.1
		c1.8,0,2.9-0.3,3.9-0.6v1.6c-1.1,0.5-2.6,0.6-3.9,0.6c-4.4,0-5.5-3-5.5-6.8S131.4,186.2,135.8,186.2z"/>
	<path class="st0" d="M147.1,187.8c-1.7,0-2.9,0.3-3.9,0.7v-1.6c1.1-0.5,2.7-0.7,3.9-0.7c3.9,0,4.9,1.8,4.9,4.4v8.9h-1l-0.4-1
		c-1.2,0.9-2.6,1.3-3.9,1.3c-3.4,0-4.6-2-4.6-4.2c0-2.2,1.2-3.8,4.6-4.1l3.4-0.2v-0.7C150.2,188.6,149.5,187.8,147.1,187.8z
		 M146.6,192.9c-1.8,0.2-2.7,1.1-2.7,2.7c0,1.2,0.3,2.6,2.8,2.6c1.4,0,2.3-0.4,3.5-1v-4.5L146.6,192.9z"/>
	<path class="st0" d="M162.2,199.6c-0.3,0.1-0.8,0.1-1.2,0.1c-2.2,0-4.2-1-4.2-3.5v-8.3h-2.6v-0.8l2.6-0.8v-3.5l1.8-0.5v4.2h4v1.4
		h-4v8.1c0,1.6,0.9,2.2,2.5,2.2c0.3,0,0.7,0,1-0.1V199.6z"/>
	<path class="st0" d="M166.5,181.3c0.7,0,1.3,0.6,1.3,1.3c0,0.7-0.6,1.3-1.3,1.3c-0.7,0-1.3-0.6-1.3-1.3
		C165.2,181.8,165.7,181.3,166.5,181.3z M165.6,196.9v-10.4h1.8v10.6c0,0.9,0.3,1.2,1.1,1.2v1.5
		C166.6,199.7,165.6,198.9,165.6,196.9z"/>
	<path class="st0" d="M176.6,199.7c-4.4,0-5.5-2.8-5.5-6.8c0-4,1-6.8,5.5-6.8c4.5,0,5.5,2.8,5.5,6.8
		C182.1,196.9,181.1,199.7,176.6,199.7z M176.6,187.8c-3.4,0-3.6,2.2-3.6,5.1c0,2.9,0.2,5.1,3.6,5.1c3.4,0,3.6-2.2,3.6-5.1
		C180.2,190,180,187.8,176.6,187.8z"/>
	<path class="st0" d="M193.1,190c0-1.7-1-2.2-2.6-2.2c-1.7,0-2.5,0.3-3.5,0.8v10.8h-1.8v-13h1l0.4,1.1c1.2-0.9,2.5-1.4,3.9-1.4
		c3.1,0,4.4,1.4,4.4,3.9v9.4h-1.8V190z"/>
</g>
<g>
	<path class="st0" d="M109,216.4c0-5.5,1.8-10,7.7-10c2.7,0,4.4,0.5,5.5,1.1v1.8c-2-0.8-3.4-1.2-5.5-1.2c-4.3,0-5.8,3.7-5.8,8.4
		s1.5,8.4,5.8,8.4c1.5,0,3.3-0.1,4.2-0.6v-6.7h-4.1v-1.6h5.9v9.4c-1.3,0.6-3.3,1.1-6,1.1C110.8,226.4,109,221.9,109,216.4z"/>
	<path class="st0" d="M133.4,214.7c-0.4-0.1-0.9-0.2-1.6-0.2c-1.8,0-2.8,0.3-3.8,0.8v10.8h-1.8v-13h1l0.4,1.1
		c1.2-0.9,2.7-1.4,4.2-1.4c0.6,0,1.1,0.1,1.6,0.1V214.7z"/>
	<path class="st0" d="M140.9,226.4c-4.4,0-5.5-2.8-5.5-6.8c0-4,1-6.8,5.5-6.8c4.5,0,5.5,2.8,5.5,6.8
		C146.4,223.6,145.4,226.4,140.9,226.4z M140.9,214.5c-3.4,0-3.6,2.2-3.6,5.1c0,2.9,0.2,5.1,3.6,5.1c3.4,0,3.6-2.2,3.6-5.1
		C144.6,216.7,144.3,214.5,140.9,214.5z"/>
	<path class="st0" d="M151.2,222.5c0,1.7,1,2.2,2.6,2.2c1.7,0,2.5-0.3,3.5-0.8v-10.8h1.8v13h-1l-0.4-1.1c-1.2,0.9-2.5,1.4-3.9,1.4
		c-3.1,0-4.4-1.4-4.4-3.9v-9.4h1.8V222.5z"/>
	<path class="st0" d="M164.3,225.3v7.3h-1.8v-19.5h1l0.4,1.1c1.4-0.9,2.7-1.3,4.1-1.3c4.2,0,5.3,3,5.3,6.8s-1.1,6.8-5.3,6.8
		C166.8,226.4,165.4,226,164.3,225.3z M171.5,219.6c0-2.6-0.4-5.1-3.5-5.1c-1.7,0-2.6,0.3-3.6,0.8v8.6c1,0.5,2,0.8,3.6,0.8
		C171.1,224.7,171.5,222.2,171.5,219.6z"/>
</g>
<g>
	<circle class="st1" cx="141.6" cy="142.9" r="134.3"/>
</g>
</svg>
