<?xml version="1.0" encoding="utf-8"?>
<!-- Generator: Adobe Illustrator 26.3.1, SVG Export Plug-In . SVG Version: 6.00 Build 0)  -->
<svg version="1.1" id="Layer_1" xmlns="http://www.w3.org/2000/svg" xmlns:xlink="http://www.w3.org/1999/xlink" x="0px" y="0px"
	 width="650px" height="595.3px" viewBox="0 0 650 595.3" style="enable-background:new 0 0 650 595.3;" xml:space="preserve">
<style type="text/css">
	.st0{fill:#27693A;}
	.st1{fill:none;stroke:#FFFFFF;stroke-width:6.4515;stroke-miterlimit:10;}
	.st2{fill:#FFFFFF;}
	.st3{fill:none;stroke:#FFFFFF;stroke-width:1.1726;}
</style>
<g>
	<path class="st0" d="M399.5,207.9c0,11.4-9.2,20.6-20.6,20.6H236c-11.4,0-20.6-9.2-20.6-20.6V64.9c0-11.4,9.2-20.6,20.6-20.6h142.9
		c11.4,0,20.6,9.2,20.6,20.6V207.9z"/>
	<line class="st1" x1="54.4" y1="469.7" x2="563.3" y2="469.7"/>
	<path class="st2" d="M81.1,330.5l-3.2,14.4H54.1L75.3,265h29.8l21.3,79.8h-23.8l-3.2-14.4H81.1z M90.2,284.4l-5.7,30.3h11.3
		L90.2,284.4z"/>
	<path class="st2" d="M191.3,319.8c0,20.1-13.9,26.8-34.9,26.8c-11.3,0-21.9-1.9-28.4-5.5l0.2-19.4c5.1,2.7,15.1,6,26.2,6
		c10.5,0,14.2-2.5,14.2-6.9c0-4.9-3.6-6.3-10.4-7.2c-21.4-2.3-30.3-7.2-30.3-24.6c0-15.6,10.4-25.3,34.1-25.3
		c12.1,0,21.1,2.1,25.5,4.1l-0.3,18.9c-5.5-2.4-15.4-4.2-23.4-4.2c-8.8,0-13.3,2.2-13.3,6.4c0,4.7,3.8,5.9,10.9,6.7
		C181.3,297.8,191.3,301.9,191.3,319.8"/>
	<polygon class="st2" points="241.5,344.8 241.5,313.2 220.7,313.2 220.7,344.8 198.1,344.8 198.1,265.5 220.7,265.5 220.7,294.9 
		241.5,294.9 241.5,265.5 264.2,265.5 264.2,344.8 	"/>
	<polygon class="st2" points="327,314.8 295.3,314.8 295.3,344.8 272.7,344.8 272.7,265.5 330.3,265.5 330.3,283.8 295.3,283.8 
		295.3,296.5 327,296.5 	"/>
	<rect x="337.1" y="265.5" class="st2" width="22.6" height="79.4"/>
	<polygon class="st2" points="424,313.2 391.7,313.2 391.7,326.5 427.2,326.5 427.2,344.8 369,344.8 369,265.5 427.2,265.5 
		427.2,283.8 391.7,283.8 391.7,294.9 424,294.9 	"/>
	<polygon class="st2" points="457.6,326.5 490.2,326.5 490.2,344.8 435,344.8 435,265.5 457.6,265.5 	"/>
	<path class="st2" d="M495.6,344.8v-79.4h29.6c30.4,0,37.7,17.3,37.7,39.7c0,22.5-7.3,39.7-37.7,39.7H495.6z M518.2,326.7h7
		c11.3,0,14.3-7.3,14.3-21.6c0-14.2-3-21.6-14.3-21.6h-7V326.7z"/>
	<path class="st2" d="M308.1,115.7c0,0-7.1-9.8-6.7-23.1c0.3-13.3,9.1-23.4,22.5-34.6c1.7,5,4.8,9.5,4.8,23.6
		C327.6,95.5,324.4,102.1,308.1,115.7"/>
	<path class="st3" d="M308.1,115.7c0,0-7.1-9.8-6.7-23.1c0.3-13.3,9.1-23.4,22.5-34.6c1.7,5,4.8,9.5,4.8,23.6
		C327.6,95.5,324.4,102.1,308.1,115.7z"/>
	<path class="st2" d="M310.9,130.2c0,0,3.7-19.2,30.1-22c8.1-0.6,15.6,1.4,23.6,4.6c-3.3,3.7-10.6,20.4-35.7,22.3
		C321.5,135.1,317.2,135.3,310.9,130.2"/>
	<path class="st3" d="M310.9,130.2c0,0,3.7-19.2,30.1-22c8.1-0.6,15.6,1.4,23.6,4.6c-3.3,3.7-10.6,20.4-35.7,22.3
		C321.5,135.1,317.2,135.3,310.9,130.2z"/>
	<path class="st2" d="M313.7,153.6c0,0,1.3-18.9,32.1-17c7.9,0.6,21.2,3.1,21.2,3.1s-18.6,23.2-40.4,22.9
		C323.2,162.6,314.7,161.1,313.7,153.6"/>
	<path class="st3" d="M313.7,153.6c0,0,1.3-18.9,32.1-17c7.9,0.6,21.2,3.1,21.2,3.1s-18.6,23.2-40.4,22.9
		C323.2,162.6,314.7,161.1,313.7,153.6z"/>
	<path class="st2" d="M314.3,183.7c0,0,0.4-9.7,14.3-10.3c13.9-0.6,30,9.5,30,9.5s-15.5,11.1-28.3,11.1
		C317.4,194.1,314.2,188.3,314.3,183.7"/>
	<path class="st3" d="M314.3,183.7c0,0,0.4-9.7,14.3-10.3c13.9-0.6,30,9.5,30,9.5s-15.5,11.1-28.3,11.1
		C317.4,194.1,314.2,188.3,314.3,183.7z"/>
	<path class="st2" d="M304.7,181.1c0,0,1.1-9.8-14.9-9.8c-15.9,0-27.2,11.5-27.2,11.5s18.6,9.3,28.5,9.3
		C301.2,192.1,304.1,186.9,304.7,181.1"/>
	<path class="st3" d="M304.7,181.1c0,0,1.1-9.8-14.9-9.8c-15.9,0-27.2,11.5-27.2,11.5s18.6,9.3,28.5,9.3
		C301.2,192.1,304.1,186.9,304.7,181.1z"/>
	<path class="st2" d="M305.6,156.2c0,0,3.1-14.6-23.8-15.2c-21-0.5-31,9.3-31,9.3s17,15.9,42.3,15.7
		C296.2,166.1,303.5,164.2,305.6,156.2"/>
	<path class="st3" d="M305.6,156.2c0,0,3.1-14.6-23.8-15.2c-21-0.5-31,9.3-31,9.3s17,15.9,42.3,15.7
		C296.2,166.1,303.5,164.2,305.6,156.2z"/>
	<path class="st2" d="M304.1,131.2c0,0,5.4-26.1-31.9-27.7c-13.5-0.1-18.8,2.3-21.9,2.8c1.6,1.4,15.5,26,41.3,27.1
		C295.2,133.4,302.3,132.1,304.1,131.2"/>
	<path class="st3" d="M304.1,131.2c0,0,5.4-26.1-31.9-27.7c-13.5-0.1-18.8,2.3-21.9,2.8c1.6,1.4,15.5,26,41.3,27.1
		C295.2,133.4,302.3,132.1,304.1,131.2z"/>
	<polygon class="st2" points="307,218 308.2,218.4 309,185.3 312,182.8 309.1,183.8 310,158.5 311.6,155.4 310,157 308,134.6 
		308.3,130.6 307.4,132.2 307.1,118.3 306.5,132.8 305.3,132.1 306.9,134.8 308.7,157 306.9,155.9 308.8,158.7 307.8,183.4 
		306,181.5 307.8,185.4 	"/>
	<path class="st2" d="M100.9,520.5V494h7.2c8.7,0,11.2,5.7,11.2,13.3c0,7.5-2.5,13.3-11.2,13.3H100.9z M103.3,518.3h4.9
		c6.4,0,8.5-4.7,8.5-11c0-6.4-2.1-11-8.5-11h-4.9V518.3z"/>
	<path class="st2" d="M182.6,511.8V494h2.4v18.2c0,7.5-6.2,8.7-9.4,8.7c-3.2,0-9.4-1.1-9.4-8.7V494h2.4v17.8c0,6.4,4.6,6.8,7,6.8
		C178,518.6,182.6,518.2,182.6,511.8"/>
	<polygon class="st2" points="249.2,520.5 234.9,498.9 235,520.5 232.6,520.5 232.6,494 234.4,494 248.6,515.6 248.6,494 251,494 
		251,520.5 	"/>
	<path class="st2" d="M298.7,520.5V494h7.2c8.7,0,11.2,5.7,11.2,13.3c0,7.5-2.5,13.3-11.2,13.3H298.7z M301.1,518.3h4.9
		c6.4,0,8.5-4.7,8.5-11c0-6.4-2.1-11-8.5-11h-4.9V518.3z"/>
	<path class="st2" d="M366.6,520.5h-2.4V494h8.3c6.6,0,8.7,2.9,8.7,7.5c0,3.5-1.2,6.1-4.9,7l6.3,12h-2.8l-5.9-11.6
		c-0.4,0-0.8,0-1.2,0h-6.1V520.5z M366.6,506.7h6.5c4.7,0,5.4-2.4,5.4-5.2c0-2.8-0.7-5.2-5.4-5.2h-6.5V506.7z"/>
	<path class="st2" d="M444.8,511.8V494h2.4v18.2c0,7.5-6.2,8.7-9.4,8.7c-3.2,0-9.4-1.1-9.4-8.7V494h2.4v17.8c0,6.4,4.6,6.8,7,6.8
		C440.2,518.6,444.8,518.2,444.8,511.8"/>
	<polygon class="st2" points="507.9,516.4 505.9,516.4 497,497.1 497.1,520.5 494.7,520.5 494.7,494 498,494 506.9,513.5 515.8,494 
		519.1,494 519.1,520.5 516.7,520.5 516.8,497.1 	"/>
	<path class="st2" d="M203.1,367.2c7.7,0,12.8,1.4,16.3,2.9v5.6c-5.8-2.3-10-3.3-16.3-3.3c-13.7,0-18.6,11.8-18.6,26.8
		c0,15.1,4.9,26.8,18.6,26.8c6.3,0,10.5-0.9,16.3-3.3v5.6c-3.4,1.5-8.6,2.9-16.3,2.9c-18.7,0-24.6-14.3-24.6-32.1
		C178.5,381.6,184.4,367.2,203.1,367.2"/>
	<path class="st2" d="M248.1,431.5c-14.3,0-17.5-8.9-17.5-21.7c0-12.8,3.3-21.7,17.5-21.7c14.3,0,17.5,8.9,17.5,21.7
		C265.6,422.5,262.4,431.5,248.1,431.5 M248.1,393.3c-11,0-11.7,7.1-11.7,16.5c0,9.4,0.7,16.5,11.7,16.5c10.8,0,11.7-7.1,11.7-16.5
		C259.8,400.3,258.9,393.3,248.1,393.3"/>
	<path class="st2" d="M278.6,422.3v-54.2h5.7v54.9c0,2.9,0.9,3.8,3.5,3.8v4.8C281.8,431.5,278.6,429,278.6,422.3"/>
	<path class="st2" d="M300.3,422.3v-54.2h5.7v54.9c0,2.9,0.9,3.8,3.5,3.8v4.8C303.5,431.5,300.3,429,300.3,422.3"/>
	<path class="st2" d="M337.3,388.1c14.2,0,15.8,9.7,15.8,21.7v2.7h-27.5c0.3,7.3,2.2,13.8,11.7,13.8c6,0,9.7-0.6,13.8-2.3v5
		c-4.7,2.1-9.7,2.5-13.8,2.5c-14.1,0-17.5-9.7-17.5-21.7C319.8,397.8,323.2,388.1,337.3,388.1 M325.6,407.7h21.7
		c0-7.4-0.4-14.4-10-14.4C327.6,393.3,325.9,400.2,325.6,407.7"/>
	<path class="st2" d="M374.1,418.9c-0.9,0.9-1.6,2.1-1.6,3.1c0,2.1,1,3,3.2,3.3l14.2,1.7c7.8,0.8,11.4,3.9,11.4,11.2
		c0,10.2-10.2,14.2-21.7,14.2c-11.7,0-18.7-3.4-18.7-12.6c0-5.7,3.9-9.4,8.6-11v-0.1c-1.6-1.1-2.7-2.8-2.7-5.5
		c0-2.3,1.4-4.3,3.2-5.7c-5-2.8-6.7-7.8-6.7-13.7c0-8.6,3.7-15.7,16.3-15.7c2.6,0,4.8,0.3,6.7,0.8h14.2v3.2l-7,2
		c1.7,2.7,2.4,6,2.4,9.7c0,8.6-3.7,15.7-16.3,15.7C377.5,419.4,375.7,419.3,374.1,418.9 M376.5,430.2c-5.5,1.3-10.2,3.8-10.2,9.2
		c0,6.2,4.7,7.9,13.3,7.9c8.3,0,16.2-2.1,16.2-9.2c0-4.2-2-5.9-7.1-6.5L376.5,430.2z M390.4,403.8c0-5.5-1.1-10.6-10.8-10.6
		c-9.8,0-10.8,5.1-10.8,10.6c0,5.5,1.1,10.6,10.8,10.6C389.3,414.4,390.4,409.3,390.4,403.8"/>
	<path class="st2" d="M425.7,388.1c14.2,0,15.8,9.7,15.8,21.7v2.7H414c0.3,7.3,2.2,13.8,11.7,13.8c6,0,9.7-0.6,13.8-2.3v5
		c-4.7,2.1-9.7,2.5-13.8,2.5c-14.1,0-17.5-9.7-17.5-21.7C408.2,397.8,411.6,388.1,425.7,388.1 M414,407.7h21.7
		c0-7.4-0.4-14.4-10-14.4C416,393.3,414.3,400.2,414,407.7"/>
</g>
</svg>
